Simulation
nRows=20
nColumns=15
endheader
time  TH_x TH_y TH_z SC_y  SC_z  SC_x  AC_y  AC_z  AC_x  GH_y  GH_z  GH_yy  EL_x  PS_y
0.0  0.000000  0.000000  0.000000  -29.058484092630632  -1.8420603280387224  11.678822315788423  53.819916196903  -7.213683746525437  -9.594410421839633  17.868242934066913  -1.2001203583743725  6.226800521244687  26.034996774795932  0.000000
0.015  0.000000  0.000000  0.000000  -28.995298867634983  -1.3957948442498587  11.913874731860517  53.830344392796825  -6.9795593688797135  -10.035971143037855  18.07585115722673  -0.6948199745240352  6.396739332767628  25.9861862197475  0.000000
0.03  0.000000  0.000000  0.000000  -28.654200651818517  -1.0987210870121258  12.141541055817832  53.420142295477426  -6.800502323439707  -10.436100513805252  18.133259163735012  -0.21585913050634342  6.346727967975748  25.822443999740784  0.000000
0.045  0.000000  0.000000  0.000000  -28.3794825036125  -0.9374619921379089  12.33118529733212  53.03965044033047  -6.6400570979725915  -10.698204322063656  18.197845690507616  0.3348336318343378  6.21272401306969  25.649978813847692  0.000000
0.06  0.000000  0.000000  0.000000  -28.195176395134464  -0.9037582393610832  12.487658026145857  52.686520716681535  -6.4784547741607215  -10.85313206296918  18.259553321489342  0.9457190825728188  5.98767529205682  25.556061871946707  0.000000
0.075  0.000000  0.000000  0.000000  -28.07231627359197  -0.9617874886709239  12.624292006552272  52.26963595485815  -6.333020282497492  -10.904599610081732  18.295046949906467  1.599199437596395  5.657518689036567  25.49769054863454  0.000000
0.09  0.000000  0.000000  0.000000  -27.9392572478254  -1.069177008585267  12.743510549194939  51.696178754767416  -6.19128673176249  -10.847379748006386  18.265359095205362  2.2380127094754094  5.1857431601994115  25.428330694703988  0.000000
0.105  0.000000  0.000000  0.000000  -27.751819982298876  -1.2116903845076732  12.81910493722015  50.934326372437454  -5.960529425662449  -10.658623563820253  18.20355814287685  2.780324525879816  4.601797595697104  25.28835160124785  0.000000
0.12  0.000000  0.000000  0.000000  -27.56930921413125  -1.4156870868889384  12.932159720338833  49.994817374284615  -5.580525945378012  -10.407207778278675  18.25009132802386  3.1714541109053256  4.051272334205358  25.066528363466833  0.000000
0.135  0.000000  0.000000  0.000000  -27.438198045665388  -1.733525772225524  13.112035153963806  49.17125164578547  -5.1510071178794155  -10.225612156152268  18.398601680176824  3.575125822346861  3.518738331542229  24.843187579128326  0.000000
0.15  0.000000  0.000000  0.000000  -27.370521823066856  -2.052443921127947  13.240640318832181  49.170517394297825  -4.936124896912263  -10.175786530749212  18.49896039874802  4.308132303662998  2.8453288220313637  24.779551580228308  0.000000
0.16499999999999998  0.000000  0.000000  0.000000  -27.41044278385658  -2.1462733265136973  13.335305880213857  49.78136352897434  -4.949961064340106  -10.167679284009134  18.642185857493523  5.230349620890604  2.183307236302211  24.885250662632597  0.000000
0.18  0.000000  0.000000  0.000000  -27.49692750853506  -2.06892469594136  13.48487015372314  50.050686717419076  -4.953112646603439  -10.106374520443529  18.885737767391692  5.9972848124775435  1.6345178829044475  24.958733652183138  0.000000
0.195  0.000000  0.000000  0.000000  -27.55482007023902  -1.983089681835241  13.67524313432661  50.09524231389976  -4.973560550900117  -10.046707026239757  19.059573866607373  6.712272775614612  0.9907215685870232  24.92384002078145  0.000000
0.21  0.000000  0.000000  0.000000  -27.610462572435296  -1.8970958820502268  13.873741710079623  50.216182991827395  -5.033009398988296  -10.034059593049319  19.191303354891634  7.476549400954155  0.2897448106563236  24.866985086851102  0.000000
0.22499999999999998  0.000000  0.000000  0.000000  -27.662927722037917  -1.7980767269226376  14.079997620221082  50.337403177638414  -5.09111026949219  -10.059629348690468  19.334668207237648  8.253040853935937  -0.3942698451121052  24.81087790624745  0.000000
0.24  0.000000  0.000000  0.000000  -27.70109281672423  -1.7026457472005874  14.301577098712631  50.42918915577355  -5.151332901268574  -10.119438173000807  19.47189483025429  9.032348255754359  -1.082815901413902  24.738541298627396  0.000000
0.255  0.000000  0.000000  0.000000  -27.72357706714684  -1.6270567054884868  14.545542469520118  50.47599824483419  -5.209545022210454  -10.219483615238175  19.60283979039844  9.808962669330498  -1.7722177610360204  24.658050665881632  0.000000
0.27  0.000000  0.000000  0.000000  -27.725545556623302  -1.5783760072390964  14.816018674290785  50.50100825191604  -5.273627029393346  -10.364906767525996  19.7216078554591  10.586075886960646  -2.463843816073626  24.57092855762836  0.000000
0.285  0.000000  0.000000  0.000000  -27.699631179884136  -1.5553385129009654  15.126594763479963  50.494062172830944  -5.353349693729067  -10.559514715548312  19.828476061338257  11.354952666631746  -3.1524395739080733  24.475952147852077  0.000000
